:FULLY-SPECIFIED
:DEGREES
799
root 4.68049 16.4804 -1.68966 -26.9075 -87.1642 42.4796
lowerback -6.76284 -0.579618 0.94648
upperback -4.15454 -0.93326 -0.390517
thorax -0.510884 -0.536747 -0.989089
lowerneck -15.4376 -1.37213 0.388174
upperneck 31.673 -3.47278 1.30166
head 13.2235 -1.6107 -0.176861
rclavicle 8.23093e-015 -1.59028e-015
rhumerus -39.4004 -3.16573 -80.223
rradius 35.0293
rwrist 15.2142
rhand -23.6313 -6.6574
rfingers 7.12502
rthumb 2.83346 -36.6183
lclavicle 8.23093e-015 -1.59028e-015
lhumerus -38.7712 -7.71486 89.1534
lradius 37.3499
lwrist -6.25163
lhand -36.3624 -1.77161
lfingers 7.12502
lthumb -9.45944 27.9961
rfemur -31.552 9.94084 20.7153
rtibia 27.0847
rfoot -10.0354 -19.1003
rtoes -3.17006
lfemur -30.0447 0.041924 -23.4052
ltibia 65.4764
lfoot -5.81527 5.18296
ltoes -14.7579
800
root 4.68447 16.4746 -1.70566 -26.555 -86.9958 42.0958
lowerback -6.68234 -0.515209 0.747337
upperback -4.14509 -0.834706 -0.446013
thorax -0.541174 -0.483982 -0.92742
lowerneck -15.4288 -1.44198 0.379486
upperneck 31.603 -3.59772 1.40608
head 13.1958 -1.65074 -0.153067
rclavicle 1.51076e-014 -8.94531e-015
rhumerus -38.9462 -3.13372 -80.0612
rradius 34.911
rwrist 15.6911
rhand -23.794 -6.7565
rfingers 7.12502
rthumb 2.67629 -36.7195
lclavicle 1.51076e-014 -8.94531e-015
lhumerus -39.0268 -7.37902 89.1217
lradius 37.1198
lwrist -6.20142
lhand -36.2701 -2.01551
lfingers 7.12502
lthumb -9.37047 27.7562
rfemur -31.0866 9.93805 20.8183
rtibia 27.4321
rfoot -10.6456 -19.3307
rtoes -3.95699
lfemur -31.5616 -0.21199 -23.4286
ltibia 66.3249
lfoot -6.61168 5.37876
ltoes -15.1747
801
root 4.69184 16.4663 -1.72178 -24.7131 -86.8696 40.2508
lowerback -6.6192 -0.446179 0.661619
upperback -4.13277 -0.736502 -0.495532
thorax -0.560841 -0.433297 -0.923673
lowerneck -15.4202 -1.5206 0.378056
upperneck 31.4988 -3.73704 1.5201
head 13.1543 -1.69472 -0.12869
rclavicle 7.95139e-016 -1.33186e-014
rhumerus -38.464 -3.24453 -79.9099
rradius 34.8558
rwrist 16.0722
rhand -23.7889 -6.87239
rfingers 7.12502
rthumb 2.68119 -36.8353
lclavicle 7.95139e-016 -1.33186e-014
lhumerus -39.297 -7.16167 89.0815
lradius 36.9195
lwrist -6.26906
lhand -36.2793 -2.01578
lfingers 7.12502
lthumb -9.37934 27.7555
rfemur -30.6779 10.0066 20.9954
rtibia 27.7373
rfoot -11.2845 -19.6775
rtoes -3.97694
lfemur -33.0996 -0.493017 -23.3455
ltibia 66.8875
lfoot -7.45948 5.59548
ltoes -15.4372
802
root 4.69801 16.4637 -1.73779 -21.6733 -86.8102 37.2023
lowerback -6.55001 -0.352898 0.718883
upperback -4.14 -0.614276 -0.546037
thorax -0.605257 -0.373668 -0.999709
lowerneck -15.3603 -1.61302 0.322678
upperneck 31.3919 -3.89527 1.67572
head 13.1033 -1.74943 -0.0812766
rclavicle -1.39149e-014 9.74045e-015
rhumerus -38.0647 -3.38723 -79.7859
rradius 34.862
rwrist 16.3951
rhand -23.8058 -7.03678
rfingers 7.12502
rthumb 2.66494 -36.9999
lclavicle -1.39149e-014 9.74045e-015
lhumerus -39.6338 -7.04223 89.0455
lradius 36.7746
lwrist -6.25664
lhand -36.2474 -2.02245
lfingers 7.12502
lthumb -9.34852 27.7503
rfemur -30.2239 10.1479 21.2811
rtibia 27.9766
rfoot -11.8293 -20.0093
rtoes -3.90638
lfemur -34.5517 -0.802149 -23.1648
ltibia 67.1487
lfoot -8.30464 5.77013
ltoes -15.373
803
root 4.70394 16.4547 -1.75066 -20.7509 -86.6665 36.2636
lowerback -6.50991 -0.287616 0.624522
upperback -4.13031 -0.52128 -0.609425
thorax -0.615112 -0.325713 -1.00619
lowerneck -15.3466 -1.67881 0.297274
upperneck 31.3272 -4.01359 1.79173
head 13.0784 -1.78771 -0.0492709
rclavicle 1.19271e-015 1.07344e-014
rhumerus -37.6024 -3.48391 -79.663
rradius 34.8212
rwrist 16.4602
rhand -23.9565 -7.0276
rfingers 7.12502
rthumb 2.51941 -36.9925
lclavicle 1.19271e-015 1.07344e-014
lhumerus -39.9662 -6.85823 88.998
lradius 36.6907
lwrist -6.16613
lhand -36.1209 -1.99694
lfingers 7.12502
lthumb -9.22649 27.7812
rfemur -29.7184 10.3074 21.3841
rtibia 28.1623
rfoot -12.4197 -20.4274
rtoes -4.04736
lfemur -35.8926 -1.19782 -23.1503
ltibia 67.1034
lfoot -9.40718 6.10551
ltoes -16.121
804
root 4.70909 16.4522 -1.7615 -20.105 -86.5209 35.6032
lowerback -6.47272 -0.22091 0.581594
upperback -4.12013 -0.429249 -0.701109
thorax -0.623619 -0.279571 -1.07077
lowerneck -15.3308 -1.75112 0.254875
upperneck 31.2458 -4.12569 1.88352
head 13.0457 -1.82844 -0.0225596
rclavicle 9.54166e-015 -4.17448e-015
rhumerus -37.1587 -3.68132 -79.5261
rradius 34.7568
rwrist 16.8338
rhand -24.0759 -7.10188
rfingers 7.12502
rthumb 2.40406 -37.0681
lclavicle 9.54166e-015 -4.17448e-015
lhumerus -40.2919 -6.8322 88.9878
lradius 36.5677
lwrist -6.05163
lhand -36.1836 -2.07171
lfingers 7.12502
lthumb -9.28694 27.7037
rfemur -29.178 10.5234 21.4563
rtibia 28.2966
rfoot -13.0777 -20.8152
rtoes -4.24086
lfemur -37.1368 -1.64498 -23.1521
ltibia 66.7383
lfoot -9.97984 6.28467
ltoes -14.5632
805
root 4.71701 16.4463 -1.77061 -18.3481 -86.4291 33.8313
lowerback -6.38876 -0.130488 0.67743
upperback -4.13526 -0.313228 -0.802049
thorax -0.684309 -0.224686 -1.22111
lowerneck -15.2753 -1.84535 0.2544
upperneck 31.1342 -4.27545 1.96112
head 12.9913 -1.88371 -0.0136702
rclavicle -1.98785e-015 -7.45443e-016
rhumerus -36.7238 -3.82611 -79.4565
rradius 34.6754
rwrist 16.996
rhand -24.1121 -7.04265
rfingers 7.12502
rthumb 2.36907 -37.0092
lclavicle -1.98785e-015 -7.45443e-016
lhumerus -40.6509 -6.77766 88.8816
lradius 36.4945
lwrist -5.96697
lhand -36.1412 -2.21063
lfingers 7.12502
lthumb -9.24605 27.5666
rfemur -28.6511 10.7816 21.6231
rtibia 28.4416
rfoot -13.7506 -21.2162
rtoes -3.59853
lfemur -38.3103 -2.14939 -23.043
ltibia 66.0841
lfoot -10.6946 6.54867
ltoes -14.3795
806
root 4.72516 16.44 -1.78037 -16.1943 -86.3175 31.6823
lowerback -6.34556 -0.0575034 0.778742
upperback -4.13595 -0.220473 -0.889272
thorax -0.707419 -0.181094 -1.36227
lowerneck -15.265 -1.91752 0.266113
upperneck 31.0387 -4.39552 2.03426
head 12.9529 -1.92417 -0.0047316
rclavicle -7.15625e-015 -1.98785e-016
rhumerus -36.3016 -3.80802 -79.518
rradius 34.7219
rwrist 16.6279
rhand -24.2491 -7.08247
rfingers 7.12502
rthumb 2.23676 -37.0505
lclavicle -7.15625e-015 -1.98785e-016
lhumerus -40.9817 -6.8178 88.8244
lradius 36.4005
lwrist -6.03397
lhand -36.2397 -2.03134
lfingers 7.12502
lthumb -9.34107 27.7417
rfemur -28.1368 10.9744 21.8314
rtibia 28.5628
rfoot -14.3777 -21.6846
rtoes -3.50073
lfemur -39.4351 -2.68533 -22.882
ltibia 65.1646
lfoot -11.2997 6.81393
ltoes -14.1719
807
root 4.73258 16.4389 -1.78979 -15.4802 -86.2219 30.9807
lowerback -6.26649 0.0199861 0.792381
upperback -4.15991 -0.118027 -0.98487
thorax -0.77331 -0.131827 -1.46226
lowerneck -15.243 -1.97231 0.288053
upperneck 30.9157 -4.46976 2.04953
head 12.8978 -1.95096 -0.0122272
rclavicle 0 -7.78987e-015
rhumerus -35.8699 -3.7406 -79.5345
rradius 34.6962
rwrist 16.764
rhand -24.3109 -7.24579
rfingers 7.12502
rthumb 2.17709 -37.2144
lclavicle 0 -7.78987e-015
lhumerus -41.3254 -6.71382 88.6977
lradius 36.2851
lwrist -6.11085
lhand -36.2757 -2.27686
lfingers 7.12502
lthumb -9.37579 27.4946
rfemur -27.6451 11.3112 21.9182
rtibia 28.6441
rfoot -15.0223 -22.128
rtoes -3.05634
lfemur -40.4169 -3.17302 -22.7989
ltibia 63.9345
lfoot -11.9155 7.0798
ltoes -14.6562
808
root 4.73924 16.4229 -1.79604 -16.5222 -86.1119 32.0514
lowerback -6.24781 0.0942608 0.700112
upperback -4.1652 -0.0150167 -1.10014
thorax -0.785995 -0.0801129 -1.52338
lowerneck -15.2459 -2.04222 0.2591
upperneck 30.7999 -4.55951 2.08903
head 12.8533 -1.98684 -0.00444131
rclavicle -5.96354e-015 6.88292e-015
rhumerus -35.4334 -3.5359 -79.6145
rradius 34.744
rwrist 16.6053
rhand -24.2843 -7.28432
rfingers 7.12502
rthumb 2.20274 -37.2527
lclavicle -5.96354e-015 6.88292e-015
lhumerus -41.6586 -6.626 88.6031
lradius 36.2422
lwrist -6.03143
lhand -36.2463 -2.32467
lfingers 7.12502
lthumb -9.34747 27.4481
rfemur -27.1101 11.4792 21.9337
rtibia 28.7136
rfoot -15.3218 -22.5364
rtoes -3.78171
lfemur -41.3546 -3.70712 -22.845
ltibia 62.4574
lfoot -12.3742 7.52354
ltoes -15.1364
809
root 4.74605 16.4194 -1.80217 -16.2137 -86.0323 31.8804
lowerback -6.3062 0.182384 0.729255
upperback -4.21785 0.0978115 -1.20957
thorax -0.804365 -0.0270475 -1.64626
lowerneck -15.2523 -2.13159 0.268226
upperneck 30.6617 -4.6646 2.06449
head 12.7976 -2.03331 -0.0298901
rclavicle 2.38542e-015 -8.64713e-015
rhumerus -35.0473 -3.42227 -79.6713
rradius 34.8228
rwrist 16.5382
rhand -24.3462 -7.09526
rfingers 7.12502
rthumb 2.143 -37.0642
lclavicle 2.38542e-015 -8.64713e-015
lhumerus -41.9938 -6.62685 88.5093
lradius 36.1769
lwrist -6.1318
lhand -36.2912 -2.05745
lfingers 7.12502
lthumb -9.3908 27.7134
rfemur -26.6994 11.6512 22.0113
rtibia 28.7504
rfoot -15.8398 -22.8292
rtoes -3.62496
lfemur -42.2686 -4.27955 -22.7173
ltibia 60.6777
lfoot -12.911 7.85686
ltoes -14.4838
